<?xml version="1.0" encoding="utf-8"?>
<!-- Generator: Adobe Illustrator 27.5.0, SVG Export Plug-In . SVG Version: 6.00 Build 0)  -->
<svg version="1.1" xmlns="http://www.w3.org/2000/svg" xmlns:xlink="http://www.w3.org/1999/xlink" x="0px" y="0px"
	 viewBox="0 0 500 500" style="enable-background:new 0 0 500 500;" xml:space="preserve">
<g id="BACKGROUND">
	<rect style="fill:#FFFFFF;" width="500" height="500"/>
</g>
<g id="OBJECTS">
	<g>
		<path style="fill:#E3D9FA;" d="M363.821,429.669c0,1.81-50.506,17.867-112.809,17.867s-112.809-16.057-112.809-17.867
			c0-1.81,50.506-3.278,112.809-3.278S363.821,427.859,363.821,429.669z"/>
		<path style="fill:#B5A4E4;" d="M307.417,428.03c0,0.905-25.253,8.934-56.405,8.934s-56.405-8.028-56.405-8.934
			c0-0.905,25.253-1.639,56.405-1.639S307.417,427.125,307.417,428.03z"/>
		<g>
			<g>
				<path style="fill:#5E4A8A;" d="M200.528,308.914l-73.214,15.411c-6.878,1.448-13.628-2.954-15.075-9.832l-32.39-153.879
					c-1.448-6.878,2.954-13.628,9.832-15.075l73.214-15.411c6.878-1.448,13.628,2.954,15.075,9.832l32.39,153.879
					C211.808,300.717,207.406,307.466,200.528,308.914z"/>
				<path style="fill:#E3D9FA;" d="M116.921,309.235L86.253,163.538c-0.783-3.719,1.597-7.368,5.316-8.15l73.57-15.486
					c3.719-0.783,7.368,1.597,8.15,5.316l30.668,145.697c0.783,3.719-1.597,7.368-5.316,8.15l-73.57,15.486
					C121.352,315.333,117.703,312.954,116.921,309.235z"/>
			</g>
			<g>
				<path style="fill:#5E4A8A;" d="M116.96,187.481c-0.294-0.085-0.541-0.247-0.741-0.488c-0.199-0.24-0.341-0.55-0.426-0.929
					l-0.3-1.336c-0.085-0.381-0.089-0.72-0.012-1.023c0.078-0.302,0.231-0.556,0.461-0.759c0.229-0.205,0.526-0.347,0.887-0.428
					c0.299-0.067,0.583-0.064,0.851,0.01c0.269,0.075,0.51,0.217,0.722,0.425c0.212,0.208,0.385,0.476,0.519,0.801l-0.891,0.2
					c-0.073-0.15-0.164-0.274-0.27-0.371c-0.106-0.097-0.222-0.163-0.349-0.2c-0.126-0.035-0.257-0.04-0.39-0.01
					c-0.179,0.04-0.323,0.113-0.434,0.219c-0.11,0.106-0.183,0.237-0.218,0.398c-0.036,0.159-0.032,0.339,0.013,0.538l0.3,1.336
					c0.045,0.198,0.117,0.362,0.217,0.49c0.101,0.13,0.223,0.216,0.367,0.265c0.144,0.047,0.306,0.05,0.485,0.01
					c0.136-0.03,0.254-0.087,0.355-0.173c0.101-0.085,0.178-0.193,0.231-0.326c0.053-0.133,0.08-0.284,0.079-0.456l0.892-0.2
					c0.016,0.354-0.028,0.669-0.131,0.949c-0.103,0.278-0.259,0.508-0.47,0.69c-0.21,0.182-0.465,0.307-0.763,0.374
					C117.583,187.569,117.255,187.566,116.96,187.481z"/>
				<path style="fill:#5E4A8A;" d="M121.676,181.482l0.583-0.131l2.938,4.456l-0.928,0.208l-1.987-3.198l-0.43,3.74l-0.928,0.209
					L121.676,181.482z M121.424,184.892l2.562-0.575l0.186,0.826l-2.562,0.575L121.424,184.892z"/>
				<path style="fill:#5E4A8A;" d="M127.525,185.263c-0.23,0.004-0.451-0.019-0.664-0.065c-0.212-0.046-0.409-0.116-0.593-0.212
					l0.269-0.795c0.222,0.114,0.462,0.186,0.721,0.215c0.258,0.028,0.517,0.013,0.776-0.045c0.313-0.07,0.543-0.177,0.69-0.324
					c0.148-0.147,0.199-0.32,0.155-0.52l-0.001-0.003c-0.032-0.139-0.095-0.242-0.19-0.307c-0.096-0.064-0.209-0.101-0.341-0.112
					c-0.133-0.01-0.3-0.008-0.501,0.003c-0.007-0.001-0.013-0.001-0.019,0.001c-0.006,0.001-0.013,0.001-0.019,0.001l-0.069,0.006
					c-0.339,0.019-0.622,0.016-0.851-0.012c-0.229-0.027-0.439-0.121-0.63-0.278c-0.191-0.159-0.327-0.416-0.406-0.769l-0.001-0.003
					c-0.07-0.31-0.06-0.591,0.03-0.844c0.09-0.252,0.255-0.466,0.495-0.642c0.24-0.176,0.547-0.305,0.922-0.39
					c0.174-0.039,0.355-0.059,0.543-0.059c0.188,0,0.376,0.018,0.564,0.055c0.189,0.036,0.373,0.092,0.555,0.166l-0.227,0.808
					c-0.217-0.09-0.434-0.148-0.648-0.173c-0.214-0.027-0.415-0.018-0.603,0.024c-0.294,0.066-0.511,0.169-0.649,0.308
					c-0.138,0.138-0.185,0.301-0.144,0.486l0,0.003c0.033,0.148,0.101,0.254,0.204,0.32c0.102,0.066,0.22,0.106,0.353,0.118
					c0.133,0.012,0.316,0.014,0.549,0.007c0.009,0,0.018-0.001,0.027-0.001c0.009-0.001,0.019-0.001,0.028-0.001
					c0.014-0.001,0.028,0,0.04,0.001c0.013,0.001,0.026-0.001,0.041-0.002c0.316-0.007,0.587,0.008,0.811,0.048
					c0.224,0.039,0.425,0.138,0.605,0.296c0.18,0.16,0.306,0.402,0.38,0.732l0.002,0.007c0.069,0.305,0.055,0.583-0.04,0.835
					c-0.094,0.252-0.266,0.465-0.516,0.642c-0.248,0.175-0.567,0.309-0.956,0.395C127.986,185.235,127.756,185.261,127.525,185.263z
					"/>
				<path style="fill:#5E4A8A;" d="M130.785,179.439l0.861-0.193l1.092,4.87l-0.862,0.193L130.785,179.439z M131.669,181.389
					l2.803-0.629l0.186,0.829l-2.803,0.629L131.669,181.389z M133.475,178.835l0.861-0.194l1.092,4.87l-0.862,0.194L133.475,178.835
					z"/>
				<path style="fill:#5E4A8A;" d="M136.401,178.178l0.861-0.193l1.092,4.87l-0.861,0.193L136.401,178.178z M137.711,182.136
					l1.497-0.336c0.243-0.054,0.416-0.15,0.517-0.288c0.101-0.135,0.129-0.302,0.085-0.499l-0.003-0.01
					c-0.03-0.134-0.082-0.243-0.155-0.326c-0.074-0.082-0.169-0.138-0.285-0.164c-0.116-0.028-0.25-0.023-0.402,0.011l-1.537,0.345
					l-0.183-0.817l1.537-0.345c0.206-0.046,0.351-0.132,0.439-0.258c0.086-0.126,0.108-0.283,0.066-0.471
					c-0.04-0.178-0.127-0.301-0.261-0.372c-0.134-0.07-0.309-0.081-0.523-0.032l-1.513,0.34l-0.185-0.824l1.567-0.352
					c0.315-0.071,0.594-0.078,0.839-0.023c0.245,0.056,0.446,0.168,0.602,0.34c0.157,0.17,0.267,0.396,0.329,0.672
					c0.042,0.186,0.043,0.359,0.002,0.522c-0.04,0.161-0.118,0.308-0.237,0.433c-0.117,0.128-0.273,0.231-0.467,0.309
					c0.217-0.018,0.413,0.009,0.586,0.079c0.174,0.069,0.318,0.178,0.433,0.324c0.115,0.145,0.195,0.323,0.242,0.532l0.002,0.01
					c0.062,0.275,0.056,0.525-0.016,0.752c-0.073,0.225-0.208,0.416-0.407,0.571c-0.199,0.154-0.452,0.267-0.761,0.336l-1.624,0.365
					L137.711,182.136z"/>
				<path style="fill:#5E4A8A;" d="M143.166,176.661l0.583-0.13l2.937,4.456l-0.927,0.208l-1.988-3.198l-0.43,3.74l-0.928,0.209
					L143.166,176.661z M142.914,180.071l2.562-0.575l0.186,0.826l-2.562,0.575L142.914,180.071z"/>
				<path style="fill:#5E4A8A;" d="M148.854,180.326c-0.294-0.085-0.541-0.247-0.741-0.488c-0.199-0.24-0.341-0.55-0.426-0.929
					l-0.3-1.336c-0.085-0.381-0.089-0.72-0.012-1.023c0.079-0.302,0.232-0.556,0.461-0.759c0.23-0.205,0.526-0.347,0.888-0.428
					c0.299-0.067,0.584-0.063,0.851,0.01c0.269,0.075,0.51,0.217,0.723,0.425c0.212,0.208,0.385,0.476,0.519,0.801l-0.891,0.2
					c-0.074-0.15-0.164-0.274-0.269-0.371c-0.106-0.097-0.222-0.163-0.348-0.2c-0.127-0.035-0.257-0.04-0.391-0.01
					c-0.179,0.04-0.324,0.113-0.433,0.219c-0.11,0.106-0.183,0.238-0.218,0.398c-0.037,0.159-0.032,0.338,0.012,0.537l0.3,1.336
					c0.044,0.198,0.117,0.362,0.218,0.491c0.1,0.129,0.222,0.216,0.367,0.264c0.144,0.047,0.306,0.05,0.485,0.01
					c0.136-0.031,0.255-0.087,0.356-0.173c0.1-0.085,0.177-0.193,0.231-0.326c0.052-0.133,0.08-0.284,0.079-0.456l0.891-0.2
					c0.016,0.353-0.028,0.668-0.13,0.948c-0.104,0.278-0.26,0.508-0.47,0.69c-0.21,0.182-0.465,0.307-0.763,0.374
					C149.477,180.414,149.148,180.411,148.854,180.326z"/>
				<path style="fill:#5E4A8A;" d="M152.295,174.613l0.861-0.193l1.092,4.87l-0.861,0.193L152.295,174.613z M153.497,177.401
					l1.346-3.359l1.079-0.242l-2.103,4.738L153.497,177.401z M154.186,176.679l0.618-0.663l2.414,2.608l-1.028,0.231
					L154.186,176.679z"/>
			</g>
			<g>
				
					<line style="opacity:0.25;fill:none;stroke:#6736B6;stroke-width:3.3986;stroke-linecap:round;stroke-linejoin:round;stroke-miterlimit:10;" x1="131.621" y1="259.334" x2="176.753" y2="249.457"/>
				
					<line style="opacity:0.25;fill:none;stroke:#6736B6;stroke-width:3.3986;stroke-linecap:round;stroke-linejoin:round;stroke-miterlimit:10;" x1="142.34" y1="265.623" x2="171.08" y2="259.334"/>
			</g>
			<g>
				<path style="fill:#6CBEC3;" d="M169.792,278.973c0.66,5.15-2.98,9.859-8.13,10.519c-5.15,0.66-9.859-2.98-10.519-8.13
					c-0.66-5.15,2.98-9.859,8.13-10.519C164.423,270.184,169.133,273.823,169.792,278.973z"/>
				
					<polyline style="fill:none;stroke:#FFFFFF;stroke-width:2.2658;stroke-linecap:round;stroke-linejoin:round;stroke-miterlimit:10;" points="
					156.746,280.136 159.873,282.553 163.835,277.427 				"/>
			</g>
			<circle style="opacity:0.45;" cx="117.737" cy="144.739" r="1.193"/>
			
				<line style="opacity:0.45;fill:none;stroke:#000000;stroke-width:1.1329;stroke-linecap:round;stroke-linejoin:bevel;stroke-miterlimit:10;" x1="121.979" y1="144.003" x2="138.563" y2="140.243"/>
		</g>
		<g>
			<path style="fill:#DC4281;" d="M244.691,419.629c-0.034,4.713-0.374,9.267-0.374,9.267h-5.789l-1.008-4.701
				c0,0-3.761,3.263-7.817,3.908c-3.886,0.623-15.928,1.518-16.279-0.204c-0.023-0.079-0.011-0.147,0.011-0.227
				c0.657-2.028,19.021-12.734,21.196-16.993l4.837-0.363c0,0,2.175-3.478,4.124-0.51
				C244.509,411.2,244.725,415.471,244.691,419.629z"/>
			<path style="fill:#DC4281;" d="M272.797,428.102c-4.044-0.646-7.806-3.908-7.806-3.908l-1.008,4.701h-5.789
				c0,0-0.34-4.486-0.385-9.165c-0.034-4.18,0.181-8.519,1.11-9.924c1.949-2.968,4.124,0.51,4.124,0.51l4.951-1.201
				c1.971,3.863,17.084,14.252,20.437,17.707c0.363,0.374,0.578,0.657,0.646,0.85C289.723,429.689,276.853,428.748,272.797,428.102z
				"/>
			<path style="fill:#EDB9C0;" d="M249.301,353.502c-0.759,21.865-5.143,54.831-5.71,56.304c-0.725,1.881-8.1,1.45-8.825,1.303
				c-0.657-0.136-4.067-42.811-5.982-66.001c-0.193-2.322-0.363-4.441-0.521-6.31l6.503-6.945c0,0,11.861-8.961,14.172,6.945
				C249.438,342.242,249.505,347.453,249.301,353.502z"/>
			<path style="fill:#D8939F;" d="M248.939,338.798c0.499,3.444,0.566,8.655,0.363,14.705c-0.181-0.374-0.385-0.759-0.6-1.156
				c-4.237-7.772-12.609-8.508-19.916-7.239c-0.193-2.322-0.363-4.441-0.521-6.31l6.503-6.945
				C234.767,331.853,246.628,322.892,248.939,338.798z"/>
			<path style="fill:#EDB9C0;" d="M268.322,409.806c-0.725,1.881-8.1,1.45-8.825,1.303c-0.555-0.113-3.07-30.588-4.996-54.027
				c-0.578-7.081-1.099-13.527-1.507-18.285l6.503-6.945c0,0,11.861-8.961,14.172,6.945c0.283,1.937,0.43,4.418,0.464,7.296
				C274.395,366.882,268.957,408.152,268.322,409.806z"/>
			<path style="fill:#D8939F;" d="M274.134,346.093c-0.419-0.17-0.872-0.374-1.325-0.589c-10.275-4.871-15.69,4.112-18.307,11.578
				c-0.578-7.081-1.099-13.527-1.507-18.285l6.503-6.945c0,0,11.861-8.961,14.172,6.945
				C273.953,340.735,274.1,343.216,274.134,346.093z"/>
			<g>
				<path style="fill:#EDBA95;" d="M169.604,217.851c0,4.475-1.053,8.701-2.934,12.439c-4.554,9.12-13.98,15.373-24.867,15.373
					c-9.833,0-18.489-5.109-23.428-12.836c-0.453-0.702-0.872-1.439-1.269-2.198c-0.612-1.178-1.144-2.413-1.575-3.682
					c-0.691-1.994-1.167-4.09-1.382-6.253c-0.102-0.94-0.147-1.881-0.147-2.844c0-15.35,12.45-27.801,27.801-27.801
					c6.899,0,13.209,2.515,18.081,6.695c1.62,1.382,3.081,2.957,4.35,4.69c0.793,1.065,1.507,2.198,2.13,3.387
					c0.396,0.748,0.759,1.507,1.088,2.3c1.246,2.968,1.994,6.208,2.13,9.596C169.592,217.092,169.604,217.466,169.604,217.851z"/>
				<circle style="fill:#E4887A;" cx="141.803" cy="217.857" r="18.432"/>
				<g>
					<path style="fill:#EDBA95;" d="M146.096,218.769c-0.079-0.125-0.159-0.238-0.238-0.34c-0.295-0.374-0.657-0.657-1.054-0.838
						c-0.464-0.227-1.054-0.408-1.722-0.566c-0.079-0.023-0.147-0.045-0.227-0.057c-0.034-0.011-0.057-0.023-0.091-0.023
						c-0.034-0.011-0.057-0.011-0.091-0.023s-0.068-0.011-0.091-0.023c-0.023,0-0.057-0.011-0.079-0.011
						c-0.657-0.147-1.167-0.283-1.552-0.419c-0.374-0.125-0.68-0.329-0.929-0.612c-0.249-0.283-0.374-0.668-0.374-1.156v-0.011
						c0-0.136,0.011-0.272,0.034-0.396c0.057-0.521,0.261-0.918,0.612-1.212c0.43-0.351,1.076-0.533,1.948-0.533
						c0.215,0,0.442,0.023,0.668,0.057h0.011c0.227,0.045,0.465,0.102,0.691,0.181c0.453,0.17,0.929,0.408,1.416,0.736l1.212-1.665
						c-0.306-0.193-0.612-0.374-0.918-0.521c-0.136-0.068-0.261-0.136-0.397-0.193c-0.442-0.193-0.884-0.34-1.325-0.431
						c-0.215-0.045-0.431-0.079-0.646-0.102c-0.238-0.034-0.476-0.045-0.714-0.045c-0.464,0-0.895,0.034-1.291,0.102
						c-0.499,0.068-0.929,0.204-1.314,0.374c-0.691,0.317-1.212,0.793-1.552,1.427c-0.351,0.634-0.521,1.427-0.521,2.379v0.011
						c0,0.181,0.011,0.363,0.023,0.532c0.057,0.736,0.238,1.314,0.555,1.745c0.385,0.532,0.85,0.895,1.393,1.099
						c0.227,0.079,0.476,0.17,0.759,0.238c0.396,0.113,0.861,0.215,1.371,0.317c0.034,0,0.068,0.011,0.102,0.023
						c0.045,0,0.079,0.011,0.113,0.011c0.011,0.011,0.034,0.011,0.045,0.011c0.023,0,0.034,0,0.057,0.011
						c0.555,0.102,0.997,0.227,1.359,0.363c0.181,0.068,0.351,0.159,0.499,0.283c0.136,0.091,0.26,0.204,0.362,0.34
						c0.227,0.272,0.34,0.646,0.34,1.122c0,0.748-0.238,1.303-0.691,1.665c-0.464,0.363-1.156,0.544-2.085,0.544
						c-0.68,0-1.303-0.147-1.869-0.43c-0.34-0.17-0.668-0.385-0.974-0.668c-0.204-0.181-0.408-0.385-0.601-0.612l-1.325,1.62
						l-0.011,0.011c0.43,0.453,0.895,0.838,1.382,1.144c0.498,0.306,1.031,0.532,1.597,0.691c0.566,0.147,0.85,0.227,0.85,0.227
						s0.045,0,0.136,0h0.816c0.419,0,0.816-0.023,1.189-0.079c0.567-0.068,1.076-0.193,1.507-0.374
						c0.714-0.306,1.257-0.77,1.62-1.382c0.351-0.612,0.532-1.382,0.532-2.3v-0.023
						C146.617,220.049,146.447,219.313,146.096,218.769z M140.953,208.97v2.243h2.005v-2.243H140.953z M140.953,224.365v2.368h2.005
						v-2.368H140.953z"/>
				</g>
				<path style="opacity:0.25;fill:#FFFFFF;" d="M164.234,201.436l-8.44,4.418l-10.468,5.483l-2.402,1.269h-0.011l-3.229,1.688
					l-2.096,1.099l-13.617,7.137l-8.44,4.418c-0.691-1.994-1.167-4.09-1.382-6.253l9.335-4.883l27.076-14.184h0.011l9.312-4.883
					C161.503,198.128,162.965,199.703,164.234,201.436z"/>
				<path style="opacity:0.25;fill:#FFFFFF;" d="M167.451,207.123l-8.349,4.373l-13.243,6.933l-2.016,1.065l-4.917,2.572
					l-1.926,1.008l-0.011,0.011l-10.264,5.37l-8.349,4.373c-0.453-0.702-0.872-1.439-1.269-2.198l8.304-4.35l14.886-7.806
					l2.787-1.45l14.988-7.851l8.293-4.35C166.76,205.571,167.122,206.33,167.451,207.123z"/>
			</g>
			<path style="fill:#EDB9C0;" d="M235.526,207.622l-4.101,12.586c0,0-1.847,2.379-4.475,5.8c-2.855,3.727-6.65,8.689-9.969,13.141
				c-6.367,8.531-10.706,11.283-18.33,7.239c-7.636-4.056-26.135-19.384-26.135-19.384l-0.861-0.113l-3.342-0.465l1.303-6.287
				c0,0-0.725-2.322-1.586-3.047c-0.872-0.714-2.821-2.889-2.674-4.044c0.011-0.079,0.023-0.147,0.057-0.204
				c0.306-0.714,1.722,0.748,3.342,1.212c1.733,0.51,5.993,6.004,7.228,6.729c1.223,0.725,28.99,13.232,28.99,13.232
				s0.43-0.725,1.201-1.982c3.512-5.778,13.991-22.691,20.811-30.735c2.096-2.47,3.852-4.101,4.962-4.316L235.526,207.622z"/>
			<path style="fill:#D8939F;" d="M235.526,207.622l-4.101,12.586c0,0-1.847,2.379-4.475,5.8
				c0.861-10.864,1.212-17.729,0.034-24.708c2.096-2.47,3.852-4.101,4.962-4.316L235.526,207.622z"/>
			<path style="fill:#3E3551;" d="M284.704,213.682c-0.113-0.136-1.246-1.371-3.014-3.138c-4.667-4.656-13.742-12.949-19.882-13.561
				c-6.197-0.612-18.613,0.782-25.003,0.793c-2.447,0-4.01-0.193-4.01-0.793c0-2.152,5.97-7.579,4.531-11.34
				c-1.45-3.761-6.072-14.852-6.752-21.502c-0.68-6.65,2.606-15.622,11.091-13.889c0,0,0.668-7.998,12.439-7.228
				c11.759,0.77,13.878,16.291,17.356,20.822c3.467,4.532-2.413,13.991,0.385,19.293c2.787,5.302,11.952,7.998,11.181,15.328
				C282.28,205.616,284.602,213.309,284.704,213.682z"/>
			<path style="fill:#272137;" d="M281.69,210.544c-4.667-4.656-13.742-12.949-19.882-13.561
				c-6.197-0.612-18.613,0.782-25.003,0.793l-0.442-0.793c3.784-2.753,3.285-9.607,3.285-9.607l1.19,4.803c0,0,1.79-2.39-0.714-7.5
				c-2.515-5.109-3.399-16.721-3.399-16.721l17.571,0.793l4.701,3.263l4.362,1.688c0,0-2.277,7.885-0.997,12.326
				c1.28,4.43,3.308,5.37,3.308,5.37s-1.348-4.6-0.963-7.296c1.156,4.43,13.685,6.48,15.815,18.477
				C281.056,205.605,281.43,208.267,281.69,210.544z"/>
			<path style="fill:#EDB9C0;" d="M331.447,187.014c-1.371,3.365-2.017,4.849-2.957,5.529c-0.94,0.691-8.644,3.908-8.644,3.908
				s-13.923,34.462-17.605,41.973c-3.693,7.522-11.941,10.128-17.865,0.872c-3.229-5.041-7.488-11.295-10.706-15.928
				c-2.674-3.875-4.622-6.627-4.622-6.627l2.798-21.366c1.292,0.782,2.787,2.413,4.407,4.554
				c5.925,7.896,13.221,22.816,15.77,28.175c0.589,1.257,0.929,1.982,0.929,1.982s20.539-32.967,21.797-34.711
				c1.246-1.733,3.217-5.359,4.339-6.231c1.122-0.861,3.682-4.226,4.226-3.795c0.544,0.442,0.215,2.243-0.397,3.263
				c-0.578,0.94-2.016,2.946-2.186,3.206c0.351-0.113,5.993-2.028,6.197-2.413c0.227-0.396,1.382-4.554,1.745-4.815
				c0.351-0.249,0.351,3.693,0.351,3.693s2.968-6.004,3.365-6.106C332.783,182.064,332.829,183.65,331.447,187.014z"/>
			<g>
				<g>
					<polygon style="fill:#DC4281;" points="355.46,261.779 319.806,265.678 307.476,205.486 343.13,201.587 					"/>
					<polygon style="fill:#B8206E;" points="307.476,205.486 303.846,205.883 295.872,268.295 309.716,264.882 319.806,265.678 
											"/>
				</g>
				<path style="fill:#E1E1E1;" d="M322.794,207.191c0,0.712-0.577,1.289-1.29,1.289s-1.29-0.577-1.29-1.289
					c0-0.712,0.577-1.29,1.29-1.29S322.794,206.479,322.794,207.191z"/>
				<path style="fill:#E1E1E1;" d="M333.282,205.486c0,0.712-0.577,1.29-1.29,1.29c-0.712,0-1.29-0.577-1.29-1.29
					s0.577-1.29,1.29-1.29C332.704,204.196,333.282,204.774,333.282,205.486z"/>
				<path style="fill:none;stroke:#3E3551;stroke-width:1.1329;stroke-linecap:round;stroke-miterlimit:10;" d="M321.543,207.191
					c-2.025-7.038-1.229-16.584,3.543-17.499"/>
				<path style="fill:none;stroke:#3E3551;stroke-width:1.1329;stroke-linecap:round;stroke-miterlimit:10;" d="M327.899,193.506
					c2.737,3.869,4.093,11.98,4.093,11.98"/>
			</g>
			<path style="fill:#D8939F;" d="M273.67,223.369c-2.674-3.875-4.622-6.627-4.622-6.627l2.798-21.366
				c1.292,0.782,2.787,2.413,4.407,4.554C274.044,205.209,273.149,215.642,273.67,223.369z"/>
			<path style="fill:#7B4DE7;" d="M294.311,343.567c-6.559,3.863-14.569-3.569-22.272-6.163c-0.328-0.113-0.646-0.204-0.94-0.295
				c-0.238-0.068-0.476-0.136-0.702-0.193c-2.266-0.578-3.784-0.476-5.257,0c-2.492,0.804-4.871,2.696-10.649,4.146
				c-1.371,0.34-2.515,0.566-3.478,0.691c-6.061,0.759-5.404-2.311-12.054-2.81c-0.385-0.023-0.77-0.045-1.144-0.057
				c-6.91-0.113-10.128,3.523-10.128,3.523s-0.442-1.258-0.974-5.495c-0.136-1.053-0.272-2.3-0.408-3.761
				c-0.204-2.118-0.408-4.69-0.589-7.806c-0.068-1.178-0.136-2.424-0.204-3.761c-0.113-2.345-0.204-4.939-0.295-7.805
				c-0.034-1.201-0.068-2.458-0.102-3.761c-0.011-0.566-0.023-1.156-0.034-1.745c-0.045-2.062-0.045-4.078,0-6.072
				c0.023-1.269,0.057-2.526,0.113-3.761c0.113-2.673,0.294-5.279,0.521-7.806c0.113-1.269,0.238-2.526,0.374-3.761
				c0.295-2.696,0.646-5.302,1.02-7.806c0.193-1.28,0.396-2.538,0.6-3.761c0.782-4.702,1.654-9.04,2.447-12.971
				c0.691-3.444,1.337-6.582,1.835-9.38c0.17-0.94,0.317-1.835,0.453-2.708c0.204-1.382,0.363-2.674,0.442-3.863
				c0.521-6.979-1.167-10.49-2.809-13.243c-1.133-1.892-2.232-3.421-2.583-5.46c-0.566-3.297,0.351-7.454,1.541-11.555
				c0-0.011,0.011-0.023,0.011-0.034c0.623-2.141,1.326-4.271,1.915-6.253c1.733-5.789-1.257-12.439,0-13.98
				c1.156-1.416,2.3-0.238,2.481-0.034l0.023,0.034c0,0,4.803-1.031,11.805-3.025c1.303-0.374,2.674-0.77,4.112-1.212
				c3.659-0.442,7.602-0.181,11.136,0.329c6.038,0.85,10.842,2.413,10.842,2.413c0.113-0.227,0.317-0.419,0.566-0.555l0.023-0.011
				c0.861-0.442,2.186-0.204,1.439,1.575c-4.531,8.202-1.733,27.721-1.733,27.721s0.068,1.269,0.023,3.478v0.011
				c0,0.396-0.011,0.827-0.034,1.292v0.011c-0.102,3.569-0.487,8.893-1.586,15.022c-0.431,2.402-0.827,5.007-1.099,7.771
				c-0.306,3.115-0.453,6.412-0.294,9.788c0.227,4.883,1.088,9.947,2.98,14.841c0.487,1.269,1.042,2.515,1.677,3.761
				c0.77,1.518,1.654,3.013,2.673,4.475c0.702,1.008,1.326,2.13,1.881,3.331c0.555,1.167,1.031,2.424,1.461,3.761
				c0.782,2.39,1.393,5.03,1.926,7.806c0.238,1.224,0.464,2.481,0.668,3.761c0.419,2.538,0.793,5.155,1.189,7.817
				c0.181,1.246,0.363,2.504,0.555,3.761c0.113,0.725,0.227,1.439,0.34,2.164c0.306,1.892,0.634,3.773,1.02,5.642
				c0.238,1.269,0.51,2.515,0.816,3.761c0.646,2.708,1.416,5.336,2.368,7.806c0.498,1.303,1.042,2.56,1.665,3.761
				C291.093,339.364,292.543,341.607,294.311,343.567z"/>
			<g>
				<path style="opacity:0.25;fill:#FFFFFF;" d="M273.319,279.072h-46.21c0.193-1.28,0.396-2.538,0.6-3.761h43.933
					C272.129,276.58,272.684,277.826,273.319,279.072z"/>
				<path style="opacity:0.25;fill:#FFFFFF;" d="M279.334,290.639h-53.619c0.113-1.269,0.238-2.526,0.374-3.761h51.784
					C278.428,288.045,278.904,289.302,279.334,290.639z"/>
				<path style="opacity:0.25;fill:#FFFFFF;" d="M281.928,302.206h-56.848c0.023-1.269,0.057-2.526,0.113-3.761h56.066
					C281.498,299.668,281.724,300.926,281.928,302.206z"/>
				<path style="opacity:0.25;fill:#FFFFFF;" d="M283.673,313.784h-58.457c-0.034-1.201-0.068-2.458-0.102-3.761h58.003
					C283.299,311.269,283.48,312.526,283.673,313.784z"/>
				<path style="opacity:0.25;fill:#FFFFFF;" d="M285.848,325.35h-60.133c-0.068-1.178-0.136-2.424-0.204-3.761h59.521
					C285.27,322.858,285.542,324.104,285.848,325.35z"/>
				<path style="opacity:0.25;fill:#FFFFFF;" d="M289.881,336.917h-19.486c-2.266-0.578-3.784-0.476-5.257,0h-38.427
					c-0.136-1.053-0.272-2.3-0.408-3.761h61.912C288.714,334.459,289.258,335.716,289.881,336.917z"/>
			</g>
			<path style="fill:#6736B6;" d="M284.013,315.947c-4.837-6.355-4.996-16.948-10.411-26.464
				c-7.148-12.586-11.352-18.364-10.626-32.536c0.714-14.184,7.692-17.865,8.667-29.058c-0.102,3.569-0.487,8.893-1.586,15.022
				c-0.431,2.402-0.827,5.007-1.099,7.771c-0.306,3.115-0.453,6.412-0.294,9.788c0.363,7.692,2.266,15.804,7.33,23.077
				C281.033,290.786,281.996,303.463,284.013,315.947z"/>
			<path style="fill:#6736B6;" d="M250.989,263.144c0,0,2.153,7.058,4.101,9.29c1.949,2.22-2.47,4.611-2.47,4.611l-6.718-8.95
				c0,0-0.94,7.137-1.303,8.95c-0.362,1.813-6.65,0.94-6.65,0.94l1.665-13.085c0,0-3.217-1.133-7.035-1.756
				c-0.918-0.159-1.733-0.442-2.424-0.804c0.691-3.444,1.337-6.582,1.835-9.38c5.155,3.308,9.754,3.048,9.754,3.048
				s4.52-2.798,7.704-2.56s4.554,1.348,4.554,1.348s10.604-1.359,14.954-4.112c-0.306,3.115-0.453,6.412-0.294,9.788
				c-4.611,1.155-12.122,2.9-14.807,2.674C249.879,262.804,250.989,263.144,250.989,263.144z"/>
			<path style="fill:#6736B6;" d="M260.517,191.954c-0.691,3.648-2.436,9.267-6.661,10.32c-5.721,1.427-8.757-2.3-8.587-9.437
				c1.303-0.374,2.674-0.77,4.112-1.212C253.04,191.184,256.982,191.444,260.517,191.954z"/>
			<path style="fill:#D8939F;" d="M258.195,192.294c-0.816,4.146-3.806,8.145-7.568,6.899c-2.266-0.759-2.798-2.64-2.855-3.999
				c-0.045-0.884,0.113-1.552,0.113-1.552s-0.317-2.617-1.088-5.574c-0.351-1.359-0.804-2.787-1.371-4.067l11.805-5.88
				c-1.473,2.492-0.906,6.14,0,10.094c0.181,0.782,0.363,1.575,0.555,2.368v0.011L258.195,192.294z"/>
			<path style="fill:#C27183;" d="M257.232,188.215c-2.651,0.272-7.318,0.6-10.434-0.147c-0.351-1.359-0.804-2.787-1.371-4.067
				l11.805-5.88C255.759,180.614,256.325,184.262,257.232,188.215z"/>
			<path style="fill:#EDB9C0;" d="M262.035,176.275c-2.356,1.631-3.002-0.759-3.002-0.759s-4.237,11.793-11.533,10.774
				c-7.307-1.008-9.403-10.117-9.403-12.904c0-2.594-0.759-3.206-1.257-5.007c-0.045-0.136-0.079-0.272-0.113-0.419
				c0,0,4.294-4.475,5.891-9.108c2.164,2.934,11.136,7.919,15.872,8.349c-0.045,0.136-0.079,0.294-0.102,0.487
				c-0.181,1.484,0.249,4.362,0.612,4.328c0.397-0.034,1.008-2.968,2.741-3.365C263.474,168.254,264.38,174.655,262.035,176.275z"/>
			<path style="fill:#6736B6;" d="M273.387,195.375c-4.531,8.202-1.733,27.721-1.733,27.721s0.068,1.269,0.023,3.478
				c-5.268-4.43-3.693-21.287-0.317-32.208l0.566-0.555l0.023-0.011C272.809,193.359,274.134,193.596,273.387,195.375z"/>
			<path style="fill:#6736B6;" d="M230.96,209.842c1.733-5.789-1.257-12.439,0-13.98c1.156-1.416,2.3-0.238,2.481-0.034l0.023,0.034
				c0.442,5.834,1.337,7.012-4.418,20.233C229.669,213.954,230.371,211.825,230.96,209.842z"/>
			<path style="fill:#DC4281;" d="M268.617,258.873c-2.164,1.62-9.493,2.821-14.07,3.433c-2.243,0.306-3.818,0.464-3.818,0.464
				s-9.969,1.303-18.149-0.974c-0.736-0.204-1.473-0.431-2.175-0.702c-1.178-3.467,1.382-7.013,1.382-7.013s2.957,1.348,6.412,2.458
				c1.711,0.544,3.535,1.042,5.189,1.28c4.531-0.113,9.584-0.986,13.98-1.994c6.401-1.461,11.419-3.172,11.419-3.172
				S271.653,255.644,268.617,258.873z"/>
			<path style="fill:#C42A70;" d="M257.368,255.826c-0.023,0.782-0.283,1.665-0.952,2.606c-0.906,1.291-1.439,2.617-1.869,3.874
				c-2.243,0.306-3.818,0.464-3.818,0.464s-9.969,1.303-18.149-0.974c1.223-1.552,3.342-3.682,5.619-5.257
				c1.711,0.544,3.535,1.042,5.189,1.28C247.919,257.706,252.972,256.834,257.368,255.826z"/>
			<path style="fill:#DC4281;" d="M244.079,264.798c0,0-0.057,0.397-0.159,1.065c-0.034,0.272-0.079,0.6-0.147,0.963
				c-0.227,1.609-0.578,3.954-0.906,6.231c-0.408,2.832-0.793,5.54-0.918,6.503c-0.283,2.311-5.109-0.204-6.423-0.011
				c-1.122,0.17,0.487-6.831,2.424-12.484c0.329-0.963,0.668-1.892,1.008-2.741L244.079,264.798z"/>
			<path style="fill:#DC4281;" d="M250.978,279.877c-0.635,0.748-3.274-3.908-5.438-8.757c-0.657-1.461-1.269-2.934-1.767-4.294
				c-0.079-0.238-0.159-0.453-0.238-0.68l0.385-0.283l3.773-2.719c0,0,1.246,1.926,2.776,4.294c2.039,3.161,4.599,7.103,5.347,8.213
				C257.118,277.577,251.839,278.868,250.978,279.877z"/>
			<path style="fill:#C42A70;" d="M250.468,267.438c-2.051,0.51-3.727,2.152-4.928,3.682c-0.657-1.461-1.269-2.934-1.767-4.294
				c-0.227,1.609-0.578,3.954-0.906,6.231c-0.929-1.654-2.787-4.554-4.917-5.993c0.329-0.963,0.668-1.892,1.008-2.741l5.121,0.476
				c0,0-0.057,0.397-0.159,1.065l3.773-2.719C247.693,263.144,248.939,265.07,250.468,267.438z"/>
			<path style="fill:#DC4281;" d="M249.517,265.421c-3.274,3.285-12.53,1.982-13.64-0.906c-1.099-2.855,0.385-6.684,4.826-6.888
				h0.034c0.045-0.011,0.102-0.011,0.159-0.011c0.193-0.997,0.997-1.949,2.096-2.708l0.011-0.011
				c2.504-1.722,6.503-2.436,8.202-0.363C253.663,257.525,252.802,262.147,249.517,265.421z"/>
			<path style="fill:#C42A70;" d="M245.722,257.378c0,0,2.356,0.793,1.915,3.467c0.034-0.736-0.306-1.325-0.884-1.779
				c-1.325-1.076-3.897-1.45-6.015-1.439c0.045-0.011,0.102-0.011,0.159-0.011c0.068-0.374,0.238-0.748,0.464-1.11
				c0.385-0.578,0.952-1.122,1.631-1.597l0.011-0.011c2.923-0.476,5.846,0.736,6.775,2.81
				C248.293,256.256,245.722,257.378,245.722,257.378z"/>
			<path style="fill:#C27183;" d="M258.195,192.294c-0.816,4.146-3.806,8.145-7.568,6.899c-2.266-0.759-2.798-2.64-2.855-3.999
				c4.815,5.63,8.44-0.351,10.015-4.599L258.195,192.294z"/>
			<path style="opacity:0.45;fill:#6736B6;" d="M251.012,341.754c-6.061,0.759-5.404-2.311-12.054-2.81
				c-0.385-0.023-0.77-0.045-1.144-0.057c4.35-9.165,8.372-37.158,10.309-36.105C249.902,303.746,249.913,326.642,251.012,341.754z"
				/>
			<path style="opacity:0.45;fill:#6736B6;" d="M294.311,343.567c-6.559,3.863-14.569-3.569-22.272-6.163
				c-0.328-0.113-0.646-0.204-0.94-0.295c-3.433-12.869-3.568-35.244-2.141-31.233C270.679,310.691,280.716,337.495,294.311,343.567
				z"/>
			<path style="fill:#D8939F;" d="M292.951,230.087c-1.733,2.708-2.311,6.174-2.311,6.174s-0.657-2.141,1.382-8.157
				C292.611,229.361,292.951,230.087,292.951,230.087z"/>
			<path style="fill:#D8939F;" d="M209.605,237.847c0,0-1.949-2.311-4.633-3.829c0,0,0.43-0.725,1.201-1.982
				C209.152,234.867,209.605,237.847,209.605,237.847z"/>
			<path style="fill:#982D6C;" d="M244.691,419.629c-0.034,4.713-0.374,9.267-0.374,9.267h-5.789l-1.008-4.701
				c0,0-3.761,3.263-7.817,3.908c-3.886,0.623-15.928,1.518-16.279-0.204c8.383,0.872,16.687-0.68,21.593-4.69
				C238.109,420.671,241.904,419.674,244.691,419.629z"/>
			<path style="fill:#982D6C;" d="M272.797,428.102c-4.044-0.646-7.806-3.908-7.806-3.908l-1.008,4.701h-5.789
				c0,0-0.34-4.486-0.385-9.165c6.979,0.714,8.689,4.962,18.035,6.559c5.834,1.008,10.06,0.85,12.586,0.533
				c0.363,0.374,0.578,0.657,0.646,0.85C289.723,429.689,276.853,428.748,272.797,428.102z"/>
			<path style="opacity:0.45;fill:#6736B6;" d="M261.163,235.615c0.532,2.288-16.449,15.339-28.718,14.637
				c0.204-1.382,0.363-2.674,0.442-3.863c0.521-6.979-1.167-10.49-2.809-13.243C241.723,237.564,260.619,233.304,261.163,235.615z"
				/>
			<path style="fill:#D8939F;" d="M258.489,167.201c-0.045,0.136-0.079,0.294-0.102,0.487c-5.189,0.918-15.373-3.705-15.373-3.705
				s-3.523,3.217-6.174,4.396c-0.045-0.136-0.079-0.272-0.113-0.419c0,0,4.294-4.475,5.891-9.108
				C244.781,161.785,253.754,166.77,258.489,167.201z"/>
			<g>
				<path style="fill:#C27183;" d="M261.766,170.891c-1.085,0.253-1.989,3.182-0.771,4.327
					C260.585,173.627,260.982,172.12,261.766,170.891z"/>
				<path style="fill:#C27183;" d="M260.729,174.205c0.267-1.564,0.795-2.242,1.362-1.965c0.566,0.277,0.145,1.338-0.241,1.76
					c0.157-0.494,0.193-1.193-0.193-1.109c-0.386,0.084-0.771,1.748-0.663,2.326"/>
			</g>
			<path style="fill:none;stroke:#D85176;stroke-width:0.5664;stroke-linecap:round;stroke-miterlimit:10;" d="M247.352,181.051
				c2.35-0.108,3.978-1.989,3.978-1.989"/>
			<path style="fill:#3E3551;" d="M251.329,171.686c0,0.599-0.389,1.085-0.868,1.085c-0.479,0-0.868-0.486-0.868-1.085
				c0-0.599,0.388-1.085,0.868-1.085C250.941,170.602,251.329,171.087,251.329,171.686z"/>
			<ellipse style="fill:#3E3551;" cx="241.712" cy="172.18" rx="0.868" ry="1.085"/>
			<path style="fill:none;stroke:#3E3551;stroke-width:0.5664;stroke-linecap:round;stroke-miterlimit:10;" d="M248.726,169.517
				c0,0,1.049-1.338,3.579-0.47"/>
			<path style="fill:none;stroke:#3E3551;stroke-width:0.5664;stroke-linecap:round;stroke-miterlimit:10;" d="M239.651,170.602
				c0,0,1.519-1.844,3.579-0.47"/>
			<path style="fill:none;stroke:#C27183;stroke-width:0.5664;stroke-linecap:round;stroke-miterlimit:10;" d="M245.086,169.623
				c0.482,3.148-0.868,6.185-0.82,7.101c0.048,0.916,2.7,0.578,3.085,0.578"/>
			<path style="fill:#D8939F;" d="M171.654,226.892l-3.342-0.465l1.303-6.287c0,0-0.725-2.322-1.586-3.047
				c-0.872-0.714-2.821-2.889-2.674-4.044c0.011-0.079,0.023-0.147,0.057-0.204c0.646,1.847,3.138,3.523,4.192,5.155
				c1.099,1.699,1.461,4.373,2.368,5.676C172.594,224.592,172.447,225.872,171.654,226.892z"/>
			<path style="fill:#D8939F;" d="M175.257,222.775c-0.217,1.627-1.88,4.005-1.627,4.117
				C173.883,227.005,175.908,223.895,175.257,222.775z"/>
		</g>
		<g>
			<path style="fill:#272137;" d="M418.036,294.007l-36.785,30.559c-6.062,5.036-15.058,4.204-20.094-1.858l-12.199-14.684
				c-5.036-6.062-4.204-15.058,1.858-20.094L387.6,257.37c2.212-1.837,5.494-1.534,7.332,0.678l23.782,28.627
				C420.551,288.887,420.248,292.169,418.036,294.007z"/>
			<g>
				<path style="fill:#EDBA95;" d="M393.684,270.536c1.204,2.892,1.659,5.906,1.45,8.827c-0.49,7.118-4.899,13.694-11.934,16.623
					c-6.354,2.645-13.322,1.671-18.592-1.993c-0.482-0.332-0.951-0.695-1.411-1.079c-0.712-0.597-1.388-1.252-2.008-1.956
					c-0.983-1.103-1.854-2.329-2.575-3.669c-0.319-0.58-0.601-1.176-0.86-1.798c-4.129-9.92,0.568-21.314,10.487-25.443
					c4.458-1.856,9.213-1.928,13.485-0.537c1.419,0.457,2.786,1.082,4.073,1.861c0.799,0.475,1.565,1.015,2.287,1.616
					c0.457,0.377,0.896,0.77,1.321,1.194c1.604,1.583,2.958,3.475,3.957,5.628C393.473,270.048,393.58,270.287,393.684,270.536z"/>
				<path style="fill:#E4887A;" d="M387.631,273.059c2.738,6.578-0.375,14.131-6.953,16.869s-14.131-0.375-16.869-6.953
					c-2.738-6.578,0.375-14.131,6.953-16.869C377.341,263.368,384.893,266.481,387.631,273.059z"/>
				<g>
					<path style="fill:#EDBA95;" d="M378.74,277.452c-0.085-0.059-0.167-0.111-0.245-0.156c-0.291-0.162-0.601-0.248-0.906-0.258
						c-0.361-0.021-0.79,0.02-1.265,0.097c-0.057,0.007-0.107,0.01-0.162,0.024c-0.025,0.002-0.043,0.001-0.065,0.01
						c-0.025,0.002-0.04,0.008-0.065,0.01c-0.025,0.002-0.047,0.011-0.065,0.01c-0.015,0.006-0.04,0.008-0.054,0.014
						c-0.464,0.082-0.83,0.131-1.116,0.147c-0.275,0.02-0.528-0.029-0.765-0.145c-0.237-0.116-0.421-0.331-0.552-0.646l-0.003-0.007
						c-0.037-0.088-0.066-0.179-0.085-0.265c-0.104-0.352-0.078-0.663,0.069-0.948c0.184-0.343,0.552-0.634,1.116-0.868
						c0.139-0.058,0.292-0.104,0.447-0.143l0.007-0.003c0.159-0.032,0.328-0.059,0.495-0.069c0.339-0.012,0.71,0.014,1.113,0.095
						l0.335-1.402c-0.25-0.042-0.496-0.077-0.733-0.09c-0.106-0.007-0.205-0.018-0.308-0.018c-0.337-0.006-0.662,0.018-0.972,0.078
						c-0.151,0.029-0.3,0.065-0.445,0.108c-0.163,0.042-0.32,0.099-0.473,0.163c-0.3,0.125-0.569,0.263-0.807,0.413
						c-0.304,0.178-0.546,0.382-0.749,0.595c-0.361,0.391-0.57,0.838-0.619,1.34c-0.056,0.505,0.047,1.063,0.303,1.678l0.003,0.007
						c0.049,0.117,0.105,0.231,0.158,0.338c0.235,0.461,0.507,0.785,0.828,0.978c0.392,0.24,0.79,0.35,1.196,0.335
						c0.168-0.01,0.353-0.018,0.555-0.05c0.287-0.033,0.614-0.092,0.971-0.164c0.022-0.009,0.047-0.011,0.072-0.013
						c0.029-0.012,0.054-0.014,0.076-0.023c0.01,0.004,0.025-0.002,0.032-0.005c0.015-0.006,0.022-0.009,0.04-0.008
						c0.386-0.083,0.705-0.122,0.976-0.131c0.135-0.005,0.27,0.008,0.398,0.049c0.112,0.022,0.223,0.062,0.326,0.122
						c0.22,0.115,0.393,0.326,0.521,0.633c0.201,0.483,0.197,0.906,0.001,1.262c-0.203,0.359-0.6,0.662-1.201,0.912
						c-0.439,0.183-0.882,0.255-1.324,0.225c-0.265-0.018-0.535-0.069-0.809-0.17c-0.181-0.062-0.367-0.139-0.553-0.234
						l-0.421,1.403l-0.004,0.01c0.4,0.177,0.804,0.301,1.201,0.368c0.404,0.064,0.809,0.067,1.218,0.017
						c0.406-0.057,0.61-0.082,0.61-0.082s0.029-0.012,0.088-0.037l0.527-0.219c0.271-0.113,0.521-0.234,0.747-0.371
						c0.348-0.196,0.644-0.414,0.873-0.647c0.379-0.39,0.605-0.836,0.675-1.329c0.062-0.49-0.028-1.036-0.275-1.629l-0.006-0.015
						C379.421,278.139,379.113,277.709,378.74,277.452z M372.781,272.503l0.603,1.449l1.296-0.539l-0.603-1.449L372.781,272.503z
						 M376.922,282.452l0.637,1.53l1.296-0.539l-0.637-1.53L376.922,282.452z"/>
				</g>
			</g>
			<g>
				<path style="fill:#3E3551;" d="M417.302,312.919l-43.831,19.125c-7.223,3.152-15.634-0.149-18.785-7.372l-7.635-17.497
					c-3.152-7.223,0.149-15.634,7.372-18.785l43.831-19.125c2.635-1.15,5.704,0.054,6.854,2.69l14.884,34.111
					C421.141,308.7,419.937,311.769,417.302,312.919z"/>
				<path style="fill:#695599;" d="M414.003,292.251l-11.802,5.266c-2.188,0.976-4.754-0.006-5.73-2.194l0,0
					c-0.976-2.188,0.006-4.754,2.194-5.73l11.802-5.266c2.188-0.976,4.754,0.006,5.73,2.194l0,0
					C417.174,288.71,416.192,291.275,414.003,292.251z"/>
				<path style="fill:#A18ED8;" d="M402.003,293.532c0,0.839-0.68,1.518-1.519,1.518c-0.839,0-1.518-0.68-1.518-1.518
					c0-0.839,0.68-1.519,1.518-1.519C401.323,292.014,402.003,292.694,402.003,293.532z"/>
			</g>
		</g>
		<g>
			<g>
				<path style="fill:#E4887A;" d="M215.167,84.119c1.434,2.637,2.283,5.401,2.579,8.094c0.74,6.56-1.773,12.701-6.99,15.538
					c-4.712,2.562-10.497,1.807-15.339-1.458c-0.442-0.296-0.879-0.62-1.312-0.964c-0.671-0.535-1.322-1.124-1.934-1.759
					c-0.97-0.995-1.869-2.106-2.666-3.324c-0.35-0.527-0.673-1.07-0.982-1.637c-4.918-9.045-2.941-19.625,4.415-23.625
					c3.306-1.798,7.136-1.96,10.809-0.767c1.219,0.392,2.424,0.939,3.587,1.63c0.721,0.421,1.426,0.902,2.106,1.441
					c0.43,0.337,0.846,0.69,1.258,1.072c1.548,1.424,2.945,3.138,4.095,5.099C214.918,83.675,215.043,83.893,215.167,84.119z"/>
				<path style="fill:#EDBA95;" d="M216.983,83.132c1.434,2.637,2.283,5.401,2.579,8.094c0.74,6.56-1.773,12.701-6.99,15.538
					c-4.712,2.562-10.497,1.807-15.339-1.458c-0.442-0.296-0.879-0.62-1.312-0.964c-0.671-0.535-1.321-1.124-1.934-1.759
					c-0.97-0.995-1.869-2.106-2.666-3.324c-0.35-0.527-0.673-1.07-0.982-1.637c-4.918-9.045-2.941-19.625,4.415-23.625
					c3.306-1.798,7.136-1.96,10.809-0.766c1.219,0.392,2.424,0.939,3.587,1.63c0.721,0.421,1.426,0.902,2.106,1.441
					c0.43,0.337,0.846,0.69,1.258,1.072c1.548,1.424,2.945,3.138,4.095,5.099C216.734,82.688,216.86,82.905,216.983,83.132z"/>
				<path style="fill:#E4887A;" d="M212.495,85.576c3.261,5.998,1.951,13.011-2.927,15.663c-4.878,2.653-11.477-0.059-14.738-6.057
					c-3.262-5.998-1.951-13.011,2.927-15.663C202.635,76.866,209.234,79.578,212.495,85.576z"/>
				<g>
					<path style="fill:#EDBA95;" d="M206.013,89.798c-0.078-0.053-0.152-0.099-0.223-0.138c-0.261-0.144-0.525-0.216-0.773-0.219
						c-0.295-0.012-0.635,0.034-1.007,0.115c-0.045,0.007-0.085,0.012-0.127,0.026c-0.02,0.002-0.034,0.001-0.051,0.01
						c-0.02,0.002-0.031,0.008-0.051,0.01c-0.02,0.002-0.036,0.011-0.051,0.01c-0.011,0.006-0.031,0.008-0.042,0.014
						c-0.362,0.084-0.65,0.137-0.878,0.157c-0.219,0.024-0.431-0.016-0.641-0.118c-0.21-0.102-0.393-0.296-0.549-0.583l-0.004-0.007
						c-0.044-0.08-0.082-0.163-0.111-0.243c-0.14-0.322-0.169-0.608-0.095-0.874c0.094-0.319,0.345-0.594,0.763-0.822
						c0.103-0.056,0.219-0.102,0.339-0.141l0.005-0.003c0.123-0.032,0.255-0.061,0.389-0.073c0.272-0.018,0.576-0.002,0.915,0.065
						l0.047-1.297c-0.208-0.034-0.413-0.061-0.607-0.068c-0.087-0.005-0.169-0.012-0.252-0.01c-0.273,0.002-0.532,0.03-0.773,0.092
						c-0.118,0.029-0.232,0.065-0.342,0.108c-0.125,0.042-0.243,0.097-0.357,0.159c-0.223,0.121-0.418,0.253-0.586,0.397
						c-0.217,0.17-0.38,0.362-0.51,0.563c-0.23,0.367-0.327,0.783-0.286,1.245c0.035,0.465,0.208,0.977,0.513,1.537l0.004,0.007
						c0.058,0.107,0.122,0.211,0.182,0.308c0.263,0.419,0.535,0.712,0.825,0.883c0.355,0.213,0.694,0.306,1.02,0.284
						c0.134-0.012,0.282-0.024,0.44-0.058c0.226-0.037,0.482-0.098,0.758-0.17c0.016-0.009,0.036-0.011,0.056-0.013
						c0.022-0.012,0.042-0.014,0.058-0.023c0.009,0.004,0.02-0.002,0.025-0.005c0.011-0.006,0.016-0.009,0.031-0.008
						c0.299-0.085,0.55-0.126,0.768-0.141c0.109-0.007,0.219,0.002,0.33,0.037c0.094,0.018,0.19,0.052,0.283,0.106
						c0.196,0.101,0.37,0.292,0.522,0.572c0.24,0.44,0.303,0.83,0.202,1.161c-0.106,0.335-0.38,0.621-0.825,0.864
						c-0.326,0.177-0.671,0.253-1.034,0.233c-0.217-0.012-0.444-0.053-0.681-0.14c-0.156-0.054-0.319-0.121-0.484-0.204l-0.116,1.3
						l-0.002,0.01c0.352,0.155,0.698,0.261,1.029,0.314c0.337,0.05,0.665,0.045,0.987-0.009c0.319-0.061,0.48-0.088,0.48-0.088
						s0.022-0.012,0.065-0.035l0.391-0.213c0.201-0.109,0.384-0.226,0.545-0.357c0.25-0.188,0.454-0.394,0.602-0.613
						c0.244-0.366,0.356-0.782,0.333-1.236c-0.028-0.452-0.188-0.953-0.482-1.494l-0.007-0.013
						C206.672,90.416,206.355,90.027,206.013,89.798z M200.408,85.364l0.719,1.322l0.961-0.522l-0.719-1.322L200.408,85.364z
						 M205.341,94.436l0.759,1.395l0.961-0.522l-0.759-1.395L205.341,94.436z"/>
				</g>
				<path style="opacity:0.25;fill:#FFFFFF;" d="M209.15,74.859l-2.629,4.802l-3.259,5.958l-0.744,1.374l-0.005,0.003l-1.006,1.836
					l-0.652,1.194l-4.239,7.753l-2.629,4.803c-0.97-0.995-1.869-2.106-2.666-3.324l2.909-5.309l8.43-15.412l0.005-0.003l2.898-5.303
					C206.782,73.621,207.987,74.168,209.15,74.859z"/>
				<path style="opacity:0.25;fill:#FFFFFF;" d="M212.514,77.371l-2.6,4.752l-4.125,7.536l-0.625,1.153l-1.532,2.796l-0.6,1.096
					l-0.002,0.01l-3.198,5.838l-2.6,4.752c-0.442-0.296-0.879-0.62-1.312-0.964l2.586-4.727l4.632-8.478l0.871-1.581l4.667-8.531
					l2.58-4.724C211.686,76.637,212.103,76.99,212.514,77.371z"/>
			</g>
			<g>
				<path style="fill:#E4887A;" d="M392.502,227.858c1.226,2.254,1.951,4.617,2.205,6.919c0.632,5.608-1.516,10.857-5.976,13.283
					c-4.028,2.19-8.973,1.545-13.113-1.246c-0.378-0.253-0.751-0.53-1.122-0.824c-0.573-0.457-1.13-0.96-1.653-1.504
					c-0.829-0.85-1.598-1.8-2.279-2.842c-0.299-0.451-0.575-0.914-0.839-1.399c-4.204-7.732-2.514-16.776,3.774-20.196
					c2.826-1.537,6.1-1.676,9.241-0.655c1.042,0.335,2.072,0.803,3.067,1.393c0.616,0.36,1.219,0.771,1.8,1.232
					c0.367,0.288,0.724,0.59,1.075,0.916c1.323,1.217,2.517,2.683,3.501,4.359C392.289,227.478,392.396,227.664,392.502,227.858z"/>
				<path style="fill:#EDBA95;" d="M394.054,227.013c1.226,2.254,1.952,4.617,2.205,6.919c0.632,5.608-1.516,10.857-5.976,13.283
					c-4.028,2.19-8.973,1.545-13.113-1.246c-0.378-0.253-0.751-0.53-1.122-0.824c-0.573-0.457-1.13-0.96-1.654-1.504
					c-0.829-0.85-1.598-1.8-2.279-2.842c-0.299-0.451-0.575-0.914-0.839-1.399c-4.204-7.732-2.514-16.776,3.774-20.196
					c2.826-1.537,6.1-1.676,9.241-0.655c1.042,0.335,2.072,0.803,3.067,1.393c0.617,0.36,1.219,0.771,1.8,1.232
					c0.367,0.288,0.724,0.59,1.075,0.916c1.323,1.217,2.517,2.683,3.501,4.359C393.842,226.634,393.949,226.819,394.054,227.013z"/>
				<path style="fill:#E4887A;" d="M390.218,229.103c2.788,5.127,1.668,11.122-2.502,13.39c-4.17,2.268-9.811-0.051-12.599-5.178
					c-2.788-5.128-1.668-11.122,2.502-13.39C381.789,221.657,387.43,223.975,390.218,229.103z"/>
				<g>
					<path style="fill:#EDBA95;" d="M384.676,232.712c-0.067-0.045-0.13-0.085-0.191-0.118c-0.223-0.123-0.449-0.184-0.661-0.188
						c-0.252-0.011-0.543,0.029-0.861,0.098c-0.039,0.006-0.073,0.01-0.108,0.022c-0.017,0.002-0.029,0.001-0.043,0.009
						c-0.017,0.002-0.026,0.007-0.043,0.009c-0.017,0.002-0.031,0.009-0.043,0.009c-0.009,0.005-0.026,0.007-0.036,0.012
						c-0.31,0.072-0.556,0.117-0.751,0.135c-0.187,0.02-0.368-0.014-0.548-0.101c-0.18-0.087-0.336-0.253-0.47-0.499l-0.003-0.006
						c-0.037-0.068-0.07-0.14-0.095-0.207c-0.12-0.275-0.145-0.52-0.081-0.747c0.08-0.273,0.295-0.508,0.652-0.702
						c0.088-0.048,0.187-0.087,0.289-0.12l0.005-0.003c0.105-0.028,0.218-0.052,0.333-0.063c0.232-0.015,0.492-0.001,0.782,0.055
						l0.04-1.109c-0.178-0.029-0.353-0.052-0.519-0.058c-0.074-0.004-0.144-0.01-0.215-0.009c-0.234,0.001-0.455,0.026-0.661,0.078
						c-0.101,0.025-0.198,0.056-0.292,0.092c-0.107,0.036-0.207,0.083-0.305,0.136c-0.19,0.103-0.357,0.216-0.501,0.339
						c-0.186,0.145-0.325,0.31-0.436,0.481c-0.196,0.314-0.279,0.669-0.245,1.065c0.03,0.398,0.177,0.835,0.438,1.314l0.003,0.006
						c0.05,0.091,0.104,0.18,0.155,0.263c0.225,0.358,0.457,0.609,0.705,0.755c0.304,0.182,0.593,0.262,0.872,0.243
						c0.115-0.01,0.241-0.02,0.376-0.049c0.193-0.031,0.412-0.083,0.648-0.145c0.014-0.008,0.031-0.01,0.048-0.011
						c0.019-0.01,0.036-0.012,0.049-0.02c0.008,0.003,0.017-0.002,0.022-0.004c0.009-0.005,0.014-0.008,0.026-0.007
						c0.255-0.072,0.47-0.108,0.656-0.12c0.093-0.006,0.187,0.002,0.282,0.032c0.081,0.015,0.163,0.045,0.242,0.09
						c0.167,0.087,0.316,0.25,0.447,0.489c0.205,0.377,0.259,0.709,0.173,0.993c-0.091,0.286-0.324,0.531-0.705,0.738
						c-0.278,0.151-0.574,0.216-0.884,0.2c-0.186-0.01-0.379-0.045-0.582-0.12c-0.133-0.046-0.273-0.103-0.414-0.174l-0.099,1.111
						l-0.002,0.008c0.3,0.132,0.596,0.223,0.88,0.268c0.288,0.043,0.568,0.038,0.844-0.008c0.272-0.052,0.41-0.075,0.41-0.075
						s0.019-0.01,0.056-0.03l0.334-0.182c0.172-0.093,0.328-0.193,0.466-0.305c0.213-0.16,0.388-0.337,0.515-0.524
						c0.209-0.313,0.304-0.668,0.285-1.057c-0.024-0.386-0.16-0.815-0.412-1.277l-0.006-0.011
						C385.24,233.241,384.969,232.908,384.676,232.712z M379.885,228.922l0.614,1.13l0.821-0.447l-0.614-1.13L379.885,228.922z
						 M384.102,236.677l0.649,1.193l0.821-0.447l-0.648-1.193L384.102,236.677z"/>
				</g>
				<path style="opacity:0.25;fill:#FFFFFF;" d="M387.359,219.941l-2.247,4.105l-2.786,5.094l-0.636,1.174l-0.005,0.003l-0.86,1.569
					l-0.557,1.02l-3.624,6.628l-2.247,4.105c-0.829-0.85-1.598-1.8-2.279-2.842l2.487-4.539l7.207-13.175l0.005-0.003l2.477-4.534
					C385.334,218.883,386.364,219.351,387.359,219.941z"/>
				<path style="opacity:0.25;fill:#FFFFFF;" d="M390.234,222.089l-2.223,4.063l-3.526,6.442l-0.534,0.986l-1.31,2.391l-0.513,0.937
					l-0.002,0.008l-2.734,4.991l-2.223,4.063c-0.378-0.253-0.751-0.53-1.122-0.824l2.21-4.041l3.96-7.248l0.744-1.351l3.99-7.293
					l2.206-4.038C389.526,221.461,389.882,221.763,390.234,222.089z"/>
			</g>
			
				<path style="fill:none;stroke:#E4887A;stroke-width:1.1329;stroke-linecap:round;stroke-linejoin:round;stroke-miterlimit:10;stroke-dasharray:1.4274,7.1386;" d="
				M149.394,125.769c16.583-35.866,106.551-79.668,182.598-33.167c76.048,46.501,56.633,117.489,56.633,117.489"/>
		</g>
	</g>
</g>
</svg>
